<mxfile host="app.diagrams.net" modified="2024-05-05T02:25:53.056Z" agent="Mozilla/5.0 (Windows NT 10.0; Win64; x64) AppleWebKit/537.36 (KHTML, like Gecko) Chrome/124.0.0.0 Safari/537.36" etag="rEVOkAhSupyhNPZPBAMS" version="24.3.1" type="google">
  <diagram name="Page-1" id="kV1FkKDcbV8bJc8POnDZ">
    <mxGraphModel grid="1" page="1" gridSize="10" guides="1" tooltips="1" connect="1" arrows="1" fold="1" pageScale="1" pageWidth="850" pageHeight="1100" math="0" shadow="0">
      <root>
        <mxCell id="0" />
        <mxCell id="1" parent="0" />
        <mxCell id="Oobs51VQ8mWLu72-j9JU-8" value="" style="rounded=0;whiteSpace=wrap;html=1;" vertex="1" parent="1">
          <mxGeometry x="220" y="-250" width="440" height="1370" as="geometry" />
        </mxCell>
        <mxCell id="11FNrgyelo-c5QCkyAqB-4" style="edgeStyle=orthogonalEdgeStyle;rounded=0;orthogonalLoop=1;jettySize=auto;html=1;entryX=0;entryY=0.5;entryDx=0;entryDy=0;" edge="1" parent="1" source="Oobs51VQ8mWLu72-j9JU-1" target="Oobs51VQ8mWLu72-j9JU-3">
          <mxGeometry relative="1" as="geometry" />
        </mxCell>
        <mxCell id="11FNrgyelo-c5QCkyAqB-5" style="edgeStyle=orthogonalEdgeStyle;rounded=0;orthogonalLoop=1;jettySize=auto;html=1;entryX=0;entryY=0.5;entryDx=0;entryDy=0;" edge="1" parent="1" source="Oobs51VQ8mWLu72-j9JU-1" target="Oobs51VQ8mWLu72-j9JU-2">
          <mxGeometry relative="1" as="geometry" />
        </mxCell>
        <mxCell id="11FNrgyelo-c5QCkyAqB-6" style="edgeStyle=orthogonalEdgeStyle;rounded=0;orthogonalLoop=1;jettySize=auto;html=1;entryX=0;entryY=0.5;entryDx=0;entryDy=0;" edge="1" parent="1" source="Oobs51VQ8mWLu72-j9JU-1" target="Oobs51VQ8mWLu72-j9JU-4">
          <mxGeometry relative="1" as="geometry" />
        </mxCell>
        <mxCell id="11FNrgyelo-c5QCkyAqB-7" style="edgeStyle=orthogonalEdgeStyle;rounded=0;orthogonalLoop=1;jettySize=auto;html=1;entryX=0;entryY=0.5;entryDx=0;entryDy=0;" edge="1" parent="1" source="Oobs51VQ8mWLu72-j9JU-1" target="11FNrgyelo-c5QCkyAqB-1">
          <mxGeometry relative="1" as="geometry" />
        </mxCell>
        <mxCell id="11FNrgyelo-c5QCkyAqB-8" style="edgeStyle=orthogonalEdgeStyle;rounded=0;orthogonalLoop=1;jettySize=auto;html=1;entryX=0;entryY=0.5;entryDx=0;entryDy=0;" edge="1" parent="1" source="Oobs51VQ8mWLu72-j9JU-1" target="11FNrgyelo-c5QCkyAqB-2">
          <mxGeometry relative="1" as="geometry" />
        </mxCell>
        <mxCell id="11FNrgyelo-c5QCkyAqB-9" style="edgeStyle=orthogonalEdgeStyle;rounded=0;orthogonalLoop=1;jettySize=auto;html=1;entryX=0;entryY=0.5;entryDx=0;entryDy=0;" edge="1" parent="1" source="Oobs51VQ8mWLu72-j9JU-1" target="11FNrgyelo-c5QCkyAqB-3">
          <mxGeometry relative="1" as="geometry" />
        </mxCell>
        <mxCell id="_E3IL1r3kHYssCegc9DL-5" style="edgeStyle=orthogonalEdgeStyle;rounded=0;orthogonalLoop=1;jettySize=auto;html=1;entryX=0;entryY=0.5;entryDx=0;entryDy=0;" edge="1" parent="1" source="Oobs51VQ8mWLu72-j9JU-1" target="hWkNXRjN1uWOLbq11mrj-6">
          <mxGeometry relative="1" as="geometry">
            <Array as="points">
              <mxPoint x="270" y="310" />
              <mxPoint x="270" y="350" />
            </Array>
          </mxGeometry>
        </mxCell>
        <mxCell id="_E3IL1r3kHYssCegc9DL-6" style="edgeStyle=orthogonalEdgeStyle;rounded=0;orthogonalLoop=1;jettySize=auto;html=1;entryX=0;entryY=0.5;entryDx=0;entryDy=0;" edge="1" parent="1" source="Oobs51VQ8mWLu72-j9JU-1" target="hWkNXRjN1uWOLbq11mrj-7">
          <mxGeometry relative="1" as="geometry">
            <Array as="points">
              <mxPoint x="270" y="310" />
              <mxPoint x="270" y="430" />
            </Array>
          </mxGeometry>
        </mxCell>
        <mxCell id="_E3IL1r3kHYssCegc9DL-7" style="edgeStyle=orthogonalEdgeStyle;rounded=0;orthogonalLoop=1;jettySize=auto;html=1;entryX=0;entryY=0.5;entryDx=0;entryDy=0;" edge="1" parent="1" source="Oobs51VQ8mWLu72-j9JU-1" target="hWkNXRjN1uWOLbq11mrj-8">
          <mxGeometry relative="1" as="geometry">
            <Array as="points">
              <mxPoint x="270" y="310" />
              <mxPoint x="270" y="510" />
            </Array>
          </mxGeometry>
        </mxCell>
        <mxCell id="_E3IL1r3kHYssCegc9DL-8" style="edgeStyle=orthogonalEdgeStyle;rounded=0;orthogonalLoop=1;jettySize=auto;html=1;entryX=0;entryY=0.5;entryDx=0;entryDy=0;" edge="1" parent="1" source="Oobs51VQ8mWLu72-j9JU-1" target="hWkNXRjN1uWOLbq11mrj-9">
          <mxGeometry relative="1" as="geometry">
            <Array as="points">
              <mxPoint x="270" y="310" />
              <mxPoint x="270" y="590" />
            </Array>
          </mxGeometry>
        </mxCell>
        <mxCell id="_E3IL1r3kHYssCegc9DL-9" style="edgeStyle=orthogonalEdgeStyle;rounded=0;orthogonalLoop=1;jettySize=auto;html=1;entryX=0;entryY=0.5;entryDx=0;entryDy=0;" edge="1" parent="1" source="Oobs51VQ8mWLu72-j9JU-1" target="hWkNXRjN1uWOLbq11mrj-3">
          <mxGeometry relative="1" as="geometry">
            <Array as="points">
              <mxPoint x="270" y="310" />
              <mxPoint x="270" y="670" />
            </Array>
          </mxGeometry>
        </mxCell>
        <mxCell id="_E3IL1r3kHYssCegc9DL-10" style="edgeStyle=orthogonalEdgeStyle;rounded=0;orthogonalLoop=1;jettySize=auto;html=1;entryX=0;entryY=0.5;entryDx=0;entryDy=0;" edge="1" parent="1" source="Oobs51VQ8mWLu72-j9JU-1" target="hWkNXRjN1uWOLbq11mrj-4">
          <mxGeometry relative="1" as="geometry">
            <Array as="points">
              <mxPoint x="270" y="310" />
              <mxPoint x="270" y="750" />
            </Array>
          </mxGeometry>
        </mxCell>
        <mxCell id="_E3IL1r3kHYssCegc9DL-12" style="edgeStyle=orthogonalEdgeStyle;rounded=0;orthogonalLoop=1;jettySize=auto;html=1;entryX=0;entryY=0.5;entryDx=0;entryDy=0;" edge="1" parent="1" source="Oobs51VQ8mWLu72-j9JU-1" target="_E3IL1r3kHYssCegc9DL-3">
          <mxGeometry relative="1" as="geometry">
            <Array as="points">
              <mxPoint x="270" y="310" />
              <mxPoint x="270" y="910" />
            </Array>
          </mxGeometry>
        </mxCell>
        <mxCell id="_E3IL1r3kHYssCegc9DL-13" style="edgeStyle=orthogonalEdgeStyle;rounded=0;orthogonalLoop=1;jettySize=auto;html=1;entryX=0;entryY=0.5;entryDx=0;entryDy=0;" edge="1" parent="1" source="Oobs51VQ8mWLu72-j9JU-1" target="_E3IL1r3kHYssCegc9DL-3">
          <mxGeometry relative="1" as="geometry">
            <Array as="points">
              <mxPoint x="270" y="310" />
              <mxPoint x="270" y="910" />
            </Array>
          </mxGeometry>
        </mxCell>
        <mxCell id="_E3IL1r3kHYssCegc9DL-14" style="edgeStyle=orthogonalEdgeStyle;rounded=0;orthogonalLoop=1;jettySize=auto;html=1;entryX=0;entryY=0.5;entryDx=0;entryDy=0;" edge="1" parent="1" source="Oobs51VQ8mWLu72-j9JU-1" target="_E3IL1r3kHYssCegc9DL-4">
          <mxGeometry relative="1" as="geometry">
            <Array as="points">
              <mxPoint x="270" y="310" />
              <mxPoint x="270" y="990" />
            </Array>
          </mxGeometry>
        </mxCell>
        <mxCell id="_E3IL1r3kHYssCegc9DL-16" style="edgeStyle=orthogonalEdgeStyle;rounded=0;orthogonalLoop=1;jettySize=auto;html=1;entryX=0;entryY=0.5;entryDx=0;entryDy=0;" edge="1" parent="1" source="Oobs51VQ8mWLu72-j9JU-1" target="hWkNXRjN1uWOLbq11mrj-2">
          <mxGeometry relative="1" as="geometry">
            <Array as="points">
              <mxPoint x="270" y="310" />
              <mxPoint x="270" y="1070" />
            </Array>
          </mxGeometry>
        </mxCell>
        <mxCell id="_E3IL1r3kHYssCegc9DL-17" style="edgeStyle=orthogonalEdgeStyle;rounded=0;orthogonalLoop=1;jettySize=auto;html=1;entryX=0;entryY=0.5;entryDx=0;entryDy=0;" edge="1" parent="1" source="Oobs51VQ8mWLu72-j9JU-1" target="hWkNXRjN1uWOLbq11mrj-5">
          <mxGeometry relative="1" as="geometry" />
        </mxCell>
        <mxCell id="Oobs51VQ8mWLu72-j9JU-1" value="User" style="shape=umlActor;verticalLabelPosition=bottom;verticalAlign=top;html=1;outlineConnect=0;" vertex="1" parent="1">
          <mxGeometry x="180" y="280" width="30" height="60" as="geometry" />
        </mxCell>
        <mxCell id="Oobs51VQ8mWLu72-j9JU-2" value="Add Income Item" style="ellipse;whiteSpace=wrap;html=1;" vertex="1" parent="1">
          <mxGeometry x="250" y="-170" width="120" height="80" as="geometry" />
        </mxCell>
        <mxCell id="Oobs51VQ8mWLu72-j9JU-3" value="Delete Income Item" style="ellipse;whiteSpace=wrap;html=1;" vertex="1" parent="1">
          <mxGeometry x="270" y="-90" width="120" height="80" as="geometry" />
        </mxCell>
        <mxCell id="Oobs51VQ8mWLu72-j9JU-4" value="Add Expenses Item" style="ellipse;whiteSpace=wrap;html=1;" vertex="1" parent="1">
          <mxGeometry x="290" y="-10" width="120" height="80" as="geometry" />
        </mxCell>
        <mxCell id="Oobs51VQ8mWLu72-j9JU-9" value="&lt;font style=&quot;font-size: 18px;&quot;&gt;Financial Manager Application&lt;/font&gt;" style="text;html=1;align=center;verticalAlign=middle;whiteSpace=wrap;rounded=0;" vertex="1" parent="1">
          <mxGeometry x="315" y="-240" width="290" height="80" as="geometry" />
        </mxCell>
        <mxCell id="11FNrgyelo-c5QCkyAqB-1" value="&amp;nbsp;Delete Expenses Item&lt;span style=&quot;color: rgba(0, 0, 0, 0); font-family: monospace; font-size: 0px; text-align: start; text-wrap: nowrap;&quot;&gt;%3CmxGraphModel%3E%3Croot%3E%3CmxCell%20id%3D%220%22%2F%3E%3CmxCell%20id%3D%221%22%20parent%3D%220%22%2F%3E%3CmxCell%20id%3D%222%22%20value%3D%22Add%20Expenses%20Item%22%20style%3D%22ellipse%3BwhiteSpace%3Dwrap%3Bhtml%3D1%3B%22%20vertex%3D%221%22%20parent%3D%221%22%3E%3CmxGeometry%20x%3D%22400%22%20y%3D%22380%22%20width%3D%22120%22%20height%3D%2280%22%20as%3D%22geometry%22%2F%3E%3C%2FmxCell%3E%3C%2Froot%3E%3C%2FmxGraphModel%3E&amp;nbsp;&lt;/span&gt;" style="ellipse;whiteSpace=wrap;html=1;" vertex="1" parent="1">
          <mxGeometry x="305" y="70" width="120" height="80" as="geometry" />
        </mxCell>
        <mxCell id="11FNrgyelo-c5QCkyAqB-2" value="Add Investments Item&lt;span style=&quot;color: rgba(0, 0, 0, 0); font-family: monospace; font-size: 0px; text-align: start; text-wrap: nowrap;&quot;&gt;%3CmxGraphModel%3E%3Croot%3E%3CmxCell%20id%3D%220%22%2F%3E%3CmxCell%20id%3D%221%22%20parent%3D%220%22%2F%3E%3CmxCell%20id%3D%222%22%20value%3D%22Add%20Expenses%20Item%22%20style%3D%22ellipse%3BwhiteSpace%3Dwrap%3Bhtml%3D1%3B%22%20vertex%3D%221%22%20parent%3D%221%22%3E%3CmxGeometry%20x%3D%22400%22%20y%3D%22380%22%20width%3D%22120%22%20height%3D%2280%22%20as%3D%22geometry%22%2F%3E%3C%2FmxCell%3E%3C%2Froot%3E%3C%2FmxGraphModel%3E&lt;/span&gt;" style="ellipse;whiteSpace=wrap;html=1;" vertex="1" parent="1">
          <mxGeometry x="320" y="150" width="120" height="80" as="geometry" />
        </mxCell>
        <mxCell id="11FNrgyelo-c5QCkyAqB-3" value="Delete Investments Item" style="ellipse;whiteSpace=wrap;html=1;" vertex="1" parent="1">
          <mxGeometry x="330" y="230" width="120" height="80" as="geometry" />
        </mxCell>
        <mxCell id="hWkNXRjN1uWOLbq11mrj-2" value="Pay Credit Card Bill" style="ellipse;whiteSpace=wrap;html=1;" vertex="1" parent="1">
          <mxGeometry x="305" y="1030" width="120" height="80" as="geometry" />
        </mxCell>
        <mxCell id="hWkNXRjN1uWOLbq11mrj-3" value="Contribute to Budget Goal" style="ellipse;whiteSpace=wrap;html=1;" vertex="1" parent="1">
          <mxGeometry x="365" y="630" width="120" height="80" as="geometry" />
        </mxCell>
        <mxCell id="hWkNXRjN1uWOLbq11mrj-4" value="Create Budget Goal" style="ellipse;whiteSpace=wrap;html=1;" vertex="1" parent="1">
          <mxGeometry x="350" y="710" width="120" height="80" as="geometry" />
        </mxCell>
        <mxCell id="hWkNXRjN1uWOLbq11mrj-5" value="Remove Budget Goal" style="ellipse;whiteSpace=wrap;html=1;" vertex="1" parent="1">
          <mxGeometry x="330" y="790" width="120" height="80" as="geometry" />
        </mxCell>
        <mxCell id="hWkNXRjN1uWOLbq11mrj-6" value="Add Item to Checking Account" style="ellipse;whiteSpace=wrap;html=1;" vertex="1" parent="1">
          <mxGeometry x="350" y="310" width="120" height="80" as="geometry" />
        </mxCell>
        <mxCell id="hWkNXRjN1uWOLbq11mrj-7" value="Remove Item from Checking Account" style="ellipse;whiteSpace=wrap;html=1;" vertex="1" parent="1">
          <mxGeometry x="365" y="390" width="120" height="80" as="geometry" />
        </mxCell>
        <mxCell id="hWkNXRjN1uWOLbq11mrj-8" value="Add Item to Saving Account" style="ellipse;whiteSpace=wrap;html=1;" vertex="1" parent="1">
          <mxGeometry x="380" y="470" width="120" height="80" as="geometry" />
        </mxCell>
        <mxCell id="hWkNXRjN1uWOLbq11mrj-9" value="Remove Item from Saving Account" style="ellipse;whiteSpace=wrap;html=1;" vertex="1" parent="1">
          <mxGeometry x="380" y="550" width="120" height="80" as="geometry" />
        </mxCell>
        <mxCell id="_E3IL1r3kHYssCegc9DL-3" value="Add Credit Card Bill" style="ellipse;whiteSpace=wrap;html=1;" vertex="1" parent="1">
          <mxGeometry x="320" y="870" width="120" height="80" as="geometry" />
        </mxCell>
        <mxCell id="_E3IL1r3kHYssCegc9DL-4" value="Remove Credit Card Bill" style="ellipse;whiteSpace=wrap;html=1;" vertex="1" parent="1">
          <mxGeometry x="315" y="950" width="120" height="80" as="geometry" />
        </mxCell>
      </root>
    </mxGraphModel>
  </diagram>
</mxfile>
